<?xml version="1.0" encoding="UTF-8" standalone="no"?>
<svg
   xmlns:osb="http://www.openswatchbook.org/uri/2009/osb"
   xmlns:dc="http://purl.org/dc/elements/1.1/"
   xmlns:cc="http://creativecommons.org/ns#"
   xmlns:rdf="http://www.w3.org/1999/02/22-rdf-syntax-ns#"
   xmlns:svg="http://www.w3.org/2000/svg"
   xmlns="http://www.w3.org/2000/svg"
   width="1000"
   height="1000"
   viewBox="0 0 1000 1000"
   version="1.1"
   id="svg8">
  <defs
     id="defs2">
    <linearGradient
       id="linearGradient2695"
       osb:paint="solid">
      <stop
         style="stop-color:#000000;stop-opacity:1;"
         offset="0"
         id="stop2693" />
    </linearGradient>
  </defs>
  <metadata
     id="metadata5">
    <rdf:RDF>
      <cc:Work
         rdf:about="">
        <dc:format>image/svg+xml</dc:format>
        <dc:type
           rdf:resource="http://purl.org/dc/dcmitype/StillImage" />
        <dc:title></dc:title>
      </cc:Work>
    </rdf:RDF>
  </metadata>
  <g
     transform="matrix(0.97096488,0,0,0.97096488,-12.642761,15.805317)"
     id="g855">
    <path
       style="color:#000000;font-style:normal;font-variant:normal;font-weight:normal;font-stretch:normal;font-size:medium;line-height:normal;font-family:sans-serif;font-variant-ligatures:normal;font-variant-position:normal;font-variant-caps:normal;font-variant-numeric:normal;font-variant-alternates:normal;font-feature-settings:normal;text-indent:0;text-align:start;text-decoration:none;text-decoration-line:none;text-decoration-style:solid;text-decoration-color:#000000;letter-spacing:normal;word-spacing:normal;text-transform:none;writing-mode:lr-tb;direction:ltr;text-orientation:mixed;dominant-baseline:auto;baseline-shift:baseline;text-anchor:start;white-space:normal;shape-padding:0;clip-rule:nonzero;display:inline;overflow:visible;visibility:visible;opacity:1;isolation:auto;mix-blend-mode:normal;color-interpolation:sRGB;color-interpolation-filters:linearRGB;solid-color:#000000;solid-opacity:1;vector-effect:none;fill:#1a1a1a;fill-opacity:1;fill-rule:nonzero;stroke:none;stroke-width:9.58689499;stroke-linecap:round;stroke-linejoin:round;stroke-miterlimit:4;stroke-dasharray:none;stroke-dashoffset:0;stroke-opacity:1;color-rendering:auto;image-rendering:auto;shape-rendering:auto;text-rendering:auto;enable-background:accumulate"
       d="m 651.00195,284.2793 c -3.09205,0.5631 -6.24385,0.86112 -9.34179,1.35742 -0.80174,0.1047 -1.59966,0.23095 -2.39454,0.37305 30.37576,29.1051 49.28166,70.08412 49.28126,115.51562 -6e-5,36.81716 -12.42286,67.56789 -33.29688,90.92578 3.14411,-0.72532 6.31145,-1.31725 9.51562,-1.71094 0.27444,-0.003 0.5478,-0.002 0.81446,0.01 1.04017,0.0439 2.07772,0.198 3.09375,0.4375 18.58501,-23.97793 29.46088,-54.2626 29.46094,-89.66211 4.2e-4,-45.476 -17.94446,-86.78769 -47.12891,-117.24609 -10e-4,3e-4 -0.003,-2e-4 -0.004,0 z m -266.4375,27.875 c -16.14709,25.9554 -25.48662,56.57789 -25.48633,89.37109 6e-5,40.56574 14.2883,74.4104 38.0879,99.74805 0.44543,-0.45036 0.90589,-0.88614 1.39453,-1.29492 l 0.002,-0.002 c 2.04723,-1.68831 4.42752,-2.89269 6.9668,-3.68164 -23.02217,-23.78495 -36.86322,-55.8984 -36.86328,-94.76953 -3e-4,-31.7973 9.2607,-61.41474 25.23242,-86.30664 -3.24869,-0.5675 -6.37058,-1.63835 -9.33399,-3.06445 z m 469.0918,60.83203 c -1.12481,-0.01 -2.03958,0.10983 -2.45898,0.36523 l -52.33789,43.60742 c -2.05746,23.5189 -2.74345,50.83756 -5.18555,81.59766 L 750.98047,487.7207 c -2.48193,0.107 0.0265,9.12103 3.21484,10.35742 l 38.24024,14.65821 c -0.22258,2.3241 -0.45549,4.66519 -0.70313,7.02539 -24.98803,19.3063 -50.59239,39.53219 -76.95508,56.61719 -9.07076,-11.21795 -19.14513,-21.58753 -30.0664,-31.00196 -1.13611,3.00601 -2.92815,5.76358 -5.18164,8.08203 48.28384,42.1002 78.78711,104.06484 78.78711,173.19922 0,126.9226 -102.78647,197.15235 -229.70899,197.15235 -126.92253,0 -229.71094,-70.22975 -229.71094,-197.15235 0,-72.91506 33.93008,-137.85354 86.86524,-179.92382 -1.81617,-2.85452 -3.0173,-6.08178 -3.40234,-9.41602 -11.32938,8.76718 -21.85963,18.51655 -31.44532,29.13867 -16.76472,-33.074 -29.31484,-64.15758 -47.24023,-93.17578 l -46.19336,-12.36914 -6.70703,-41.10352 27.80273,-33.58203 c 0.80906,-1.6853 -3.29366,-3.70096 -4.00976,-3.07226 l -33.95313,32.81836 0.82422,40.64257 -37.84961,-10.13476 -31.72266,-60.36133 c -1.62969,-0.9348 -3.96125,3.91816 -4.77343,7.19336 -0.27503,1.0907 -0.37388,2.00876 -0.22461,2.47656 l 30.03125,61.14649 c 22.36988,7.5468 48.75603,14.65645 78.07226,24.28515 l -20.59961,38.9336 c -0.48145,2.4371 8.8687,2.12506 10.82227,-0.68164 l 23.26562,-33.70313 c 2.20593,0.7645 4.42496,1.54245 6.66016,2.33985 12.92299,28.961 30.4183,66.5475 40.92383,96.5371 -29.36219,39.7273 -46.73438,88.84702 -46.73438,142.01172 0,132.1036 107.19515,206.73828 239.29883,206.73828 132.10367,0 239.29688,-74.63468 239.29688,-206.73828 0,-49.3573 -14.9704,-95.22993 -40.60938,-133.33593 27.65694,-23.4319 57.51096,-45.1065 80.86524,-68.7461 l 1.125,-47.80664 38.36132,-16.21289 39.19141,19.0957 c 1.82862,0.3887 2.82091,-4.07349 2.04102,-4.62109 l -39.90235,-25.25391 -39.30078,10.38868 0.92188,-39.17383 51.17578,-45.06446 c 0.52402,-1.8042 -4.74278,-2.9247 -8.11719,-2.9414 z"
       id="path1210" />
    <path
       style="fill:#ff5b00;fill-opacity:1;stroke:none;stroke-width:0.87959015px;stroke-linecap:butt;stroke-linejoin:miter;stroke-opacity:1"
       d="m 528.87891,382.53906 c -21.98458,0.58755 -24.0855,37.73604 0.008,39.73438 39.75797,0.5999 96.75034,-4.84886 110.63672,-12.87696 -13.51992,-7.5543 -66.20203,-20.63592 -108.45508,-26.79882 -0.75035,-0.0596 -1.48027,-0.0776 -2.18945,-0.0586 z"
       id="path34" />
    <path
       style="opacity:1;fill:#1a1a1a;fill-opacity:1;stroke:none;stroke-width:11.57662678;stroke-linecap:round;stroke-linejoin:round;stroke-miterlimit:4;stroke-dasharray:34.72988142, 34.72988142;stroke-dashoffset:128;stroke-opacity:1"
       d="m 471.11133,452.9822 a 8.7212317,8.7212317 0 0 0 -8.72098,8.7209 8.7212317,8.7212317 0 0 0 8.72098,8.721 8.7212317,8.7212317 0 0 0 8.72098,-8.721 8.7212317,8.7212317 0 0 0 -8.72098,-8.7209 z m 114.9908,0 a 8.7212317,8.7212317 0 0 0 -8.72098,8.7209 8.7212317,8.7212317 0 0 0 8.72098,8.721 8.7212317,8.7212317 0 0 0 8.72098,-8.721 8.7212317,8.7212317 0 0 0 -8.72098,-8.7209 z m -94.77022,16.7971 a 8.7212317,8.7212317 0 0 0 -8.72098,8.721 8.7212317,8.7212317 0 0 0 8.72098,8.721 8.7212317,8.7212317 0 0 0 8.72098,-8.721 8.7212317,8.7212317 0 0 0 -8.72098,-8.721 z m 74.42068,0 a 8.7212317,8.7212317 0 0 0 -8.72098,8.721 8.7212317,8.7212317 0 0 0 8.72098,8.721 8.7212317,8.7212317 0 0 0 8.72098,-8.721 8.7212317,8.7212317 0 0 0 -8.72098,-8.721 z m -50.25912,7.4279 a 8.7212317,8.7212317 0 0 0 -8.72276,8.7229 8.7212317,8.7212317 0 0 0 8.72276,8.7209 8.7212317,8.7212317 0 0 0 8.72097,-8.7209 8.7212317,8.7212317 0 0 0 -8.72097,-8.7229 z m 25.19314,0 a 8.7212317,8.7212317 0 0 0 -8.72097,8.7229 8.7212317,8.7212317 0 0 0 8.72097,8.7209 8.7212317,8.7212317 0 0 0 8.72275,-8.7209 8.7212317,8.7212317 0 0 0 -8.72275,-8.7229 z"
       id="path36" />
    <path
       style="opacity:1;fill:#1a1a1a;fill-opacity:1;stroke:none;stroke-width:11.57662678;stroke-linecap:round;stroke-linejoin:round;stroke-miterlimit:4;stroke-dasharray:34.72988135, 34.72988135;stroke-dashoffset:128;stroke-opacity:1"
       d="m 473.74414,323.69531 a 24.225643,24.225643 0 0 0 -24.22461,24.22461 24.225643,24.225643 0 0 0 24.22461,24.22461 24.225643,24.225643 0 0 0 24.22461,-24.22461 24.225643,24.225643 0 0 0 -24.22461,-24.22461 z m 109.72656,0 a 24.225643,24.225643 0 0 0 -24.22656,24.22461 24.225643,24.225643 0 0 0 24.22656,24.22461 24.225643,24.225643 0 0 0 24.22461,-24.22461 24.225643,24.225643 0 0 0 -24.22461,-24.22461 z m -97.61523,14.21289 a 8.3982225,8.3982225 0 0 1 8.40039,8.39844 8.3982225,8.3982225 0 0 1 -8.40039,8.39648 8.3982225,8.3982225 0 0 1 -8.39649,-8.39648 8.3982225,8.3982225 0 0 1 8.39649,-8.39844 z m 109.72656,0 a 8.3982225,8.3982225 0 0 1 8.40039,8.39844 8.3982225,8.3982225 0 0 1 -8.40039,8.39648 8.3982225,8.3982225 0 0 1 -8.39648,-8.39648 8.3982225,8.3982225 0 0 1 8.39648,-8.39844 z"
       id="path20" />
    <path
       style="opacity:1;fill:#1a1a1a;fill-opacity:1;stroke:none;stroke-width:11.57662678;stroke-linecap:round;stroke-linejoin:round;stroke-miterlimit:4;stroke-dasharray:34.72988142, 34.72988142;stroke-dashoffset:128;stroke-opacity:1"
       d="m 528.60742,626.25195 a 24.548651,16.150428 0 0 0 -24.55078,16.15039 24.548651,16.150428 0 0 0 24.55078,16.15039 24.548651,16.150428 0 0 0 24.54883,-16.15039 24.548651,16.150428 0 0 0 -24.54883,-16.15039 z m 0,61.5 a 24.548651,16.150428 0 0 0 -24.55078,16.15039 24.548651,16.150428 0 0 0 24.55078,16.15235 24.548651,16.150428 0 0 0 24.54883,-16.15235 24.548651,16.150428 0 0 0 -24.54883,-16.15039 z m 0,61.50196 a 24.548651,16.150428 0 0 0 -24.55078,16.15039 24.548651,16.150428 0 0 0 24.55078,16.15039 24.548651,16.150428 0 0 0 24.54883,-16.15039 24.548651,16.150428 0 0 0 -24.54883,-16.15039 z"
       id="path876" />
    <path
       style="opacity:1;fill:#d40000;fill-opacity:1;stroke:none;stroke-width:7.21673822;stroke-linecap:round;stroke-linejoin:round;stroke-miterlimit:4;stroke-dasharray:21.65021577, 21.65021577;stroke-dashoffset:128;stroke-opacity:1"
       d="m 494.51562,63.951172 v 0.0039 c -7.65064,0.008 -15.79936,0.264688 -24.55078,0.679688 -17.59301,2.36998 -31.67066,5.586081 -42.9414,9.482422 -0.2893,0.061 -0.57493,0.117803 -0.86719,0.183593 -25.49902,7.04017 -50.8284,14.249068 -80.00586,30.173825 -28.50216,15.55622 -51.63375,33.37069 -65.26172,49.03516 -4.39289,-1.54017 -8.71195,-3.05661 -12.7832,-4.79297 a 5.3604373,5.3604373 0 0 0 -0.0488,-0.0195 c -1.77761,-0.73758 -3.94875,-1.71218 -6.67383,-2.20899 a 5.3604373,5.3604373 0 0 0 -0.0547,-0.01 c -1.17957,-0.20223 -2.3171,-0.28424 -3.40039,-0.29688 -0.3611,-0.005 -0.71605,-0.002 -1.06445,0.008 -1.39175,0.0365 -2.68924,0.16442 -3.88672,0.30078 a 5.3604373,5.3604373 0 0 0 -0.0723,0.01 c -0.47348,0.0604 -0.93534,0.12011 -1.38672,0.17773 a 5.3604373,5.3604373 0 0 0 -0.85352,0.17969 c -2.21645,0.66108 -3.66366,1.51594 -4.58984,1.88281 a 5.3604373,5.3604373 0 0 0 -0.17188,0.0723 c -2.1485,0.93775 -4.24937,1.84646 -6.33789,2.70898 -0.53915,0.0664 -1.52654,0.0537 -3.32031,0.26954 -0.01,9e-4 -0.008,5.5e-4 -0.0176,0.002 -2.62479,0.19515 -5.39048,0.38758 -8.28711,0.84765 a 5.3604373,5.3604373 0 0 0 -0.64453,0.14649 c -3.76039,1.08432 -6.08416,3.59589 -7.6914,5.58984 a 5.3604373,5.3604373 0 0 0 -0.11524,0.14649 c -2.20693,2.94171 -3.64192,5.54036 -5.17383,7.51172 -2.76197,1.69774 -5.77413,3.5227 -8.66406,6.08593 a 5.3604373,5.3604373 0 0 0 -0.83984,0.94141 c -2.06781,2.96308 -2.39112,5.85274 -2.76953,7.64648 a 5.3604373,5.3604373 0 0 0 -0.0781,0.47266 c -0.27956,2.35538 -0.54711,4.71354 -0.80859,7.07031 -0.0939,0.1667 -0.70942,0.99177 -1.79297,2.81641 -1.23614,1.8767 -2.46921,3.7517 -3.70313,5.625 a 5.3604373,5.3604373 0 0 0 -0.73828,1.71094 c -1.11243,4.6925 -0.44119,9.34729 1.08203,13.40039 l -0.0605,-0.16602 c 0.89112,2.6317 1.61983,4.98176 1.98242,7.16406 -0.16745,3.2958 -0.70252,7.00469 -0.61524,11.24219 a 5.3604373,5.3604373 0 0 0 0.21289,1.38477 c 1.09461,3.76601 3.42397,6.27589 5.26563,8.15039 a 5.3604373,5.3604373 0 0 0 0.37305,0.3457 c 2.25208,1.8938 4.40504,3.52923 6.41601,5.17383 1.5284,3.127 3.05713,6.25531 4.58594,9.38281 a 5.3604373,5.3604373 0 0 0 0.75977,1.15039 c 2.8665,3.3161 6.68963,4.72763 10.06835,5.33203 3.27536,0.6158 6.23751,0.93459 8.77344,1.52539 a 5.3604373,5.3604373 0 0 0 0.19531,0.0352 5.3604373,5.3604373 0 0 0 0.22071,0.17188 c 2.74442,1.9536 5.48617,3.95539 8.25195,5.96679 a 5.3604373,5.3604373 0 0 0 1.1875,0.65039 c 5.56372,2.1942 11.70379,1.82448 16.95508,-0.63672 2.60809,-1.1904 5.04529,-2.37738 7.4414,-3.45898 0.16655,-0.015 0.42001,-0.037 0.8418,-0.082 3.70728,-0.094 7.54847,0.0231 11.5293,0.0781 a 5.3604373,5.3604373 0 0 0 0.73242,-0.041 c 2.89584,-0.3585 4.60902,-1.68984 5.53516,-2.24024 a 5.3604373,5.3604373 0 0 0 0.17187,-0.10742 c 3.31225,-2.1408 5.72153,-5.14541 7.34766,-8.38281 0.77204,-1.3893 1.54806,-2.77968 2.32226,-4.17188 3.02785,-1.9993 6.08606,-4.00394 9.14258,-6.12304 a 5.3604373,5.3604373 0 0 0 1.0586,-0.9668 c 3.46143,-4.1388 5.13038,-9.41259 4.88867,-14.6875 l 0.006,0.2207 c -0.0121,-2.6515 -0.0124,-5.13559 0.10547,-7.52929 1.41016,-3.7903 3.19053,-7.66361 4.85742,-11.91211 a 5.3604373,5.3604373 0 0 0 0.26172,-0.88282 c 0.82965,-4.0566 -0.0637,-7.41895 -0.51758,-9.84765 a 5.3604373,5.3604373 0 0 0 -0.0293,-0.14649 c -0.62141,-2.8793 -1.26303,-5.75776 -1.91797,-8.63476 19.01152,-4.81623 42.74809,-13.93272 69.38282,-26.28711 0.98234,-0.45562 1.95613,-0.91612 2.92382,-1.38086 0.41628,5.90051 0.53837,11.75897 -0.043,17.48242 -1.70307,16.76379 -2.21688,30.71463 -1.70117,42.33203 -4.14186,1.7123 -8.09776,3.98652 -11.65234,6.88672 -5.91813,4.58661 -11.16087,10.33626 -14.77539,17.22266 a 5.3604373,5.3604373 0 0 0 -0.10156,0.20703 c -2.72287,5.7808 -2.84765,11.92222 -2.1836,17.35351 0.54294,4.9486 1.35554,9.63135 1.82813,14.11915 a 5.3604373,5.3604373 0 0 0 0.0156,0.13671 c 0.62442,4.7613 1.0982,9.72702 1.93164,14.82422 a 5.3604373,5.3604373 0 0 0 0.14649,0.64453 c 2.22413,7.5848 7.2419,13.83795 13.36914,18.18555 5.71557,4.2328 12.4396,7.73235 20.02734,8.93945 a 5.3604373,5.3604373 0 0 0 0.14258,0.0195 c 6.8252,0.8986 12.83196,-0.54028 17.94727,-1.08008 6.21764,-0.5619 12.56979,-0.0867 18.75,1.27734 a 5.3604373,5.3604373 0 0 0 0.20898,0.043 c 5.95938,1.0668 12.67549,2.44496 19.94531,1.41406 a 5.3604373,5.3604373 0 0 0 0.0547,-0.01 c 10.46594,-1.5956 19.17189,-5.70834 27.45508,-6.49024 a 5.3604373,5.3604373 0 0 0 0.006,0 c 7.95378,-0.7603 17.07067,1.62487 27.48047,0.82227 3.78413,-0.2418 7.34312,-0.97655 10.69335,-1.81055 l 0.0332,-0.0117 c 8.3821,-1.9649 16.05822,-4.45644 23.46679,-4.93554 7.08983,-0.3497 15.05741,0.37625 23.53711,-1.37305 a 5.3604373,5.3604373 0 0 0 0.28516,-0.0664 c 8.35341,-2.2039 15.35546,-5.64432 22.0918,-6.60742 6.86259,-0.8008 15.04828,1.25533 24.51172,0.11133 a 5.3604373,5.3604373 0 0 0 0.21484,-0.0293 c 6.4218,-1.0423 11.3565,-4.05882 15.6543,-5.95312 a 5.3604373,5.3604373 0 0 0 0.0996,-0.0469 c 5.25052,-2.4426 10.72713,-4.20719 16.25586,-4.92969 a 5.3604373,5.3604373 0 0 0 0.15429,-0.0234 c 4.58706,-0.7349 10.03174,-0.97979 15.75,-2.99219 a 5.3604373,5.3604373 0 0 0 0.0312,-0.0117 c 5.76386,-2.0687 10.88988,-5.76208 14.63477,-10.67578 4.21947,-5.3769 7.03112,-12.17149 6.9082,-19.46289 a 5.3604373,5.3604373 0 0 0 -0.004,-0.10742 c -0.2278,-6.1848 -2.49403,-11.00762 -3.45507,-14.97852 a 5.3604373,5.3604373 0 0 0 -0.0371,-0.14258 c -1.50572,-5.5449 -2.43822,-11.35986 -3.1836,-17.31836 a 5.3604373,5.3604373 0 0 0 -0.006,-0.0371 c -0.48826,-3.6894 -1.03594,-8.18962 -3.53125,-12.57812 -2.95964,-5.4558 -7.45295,-9.58606 -12.27929,-12.63086 -3.92643,-2.6047 -8.19569,-4.78217 -12.69336,-6.38867 C 642.48825,177.6632 633.53089,157.4548 615.55078,131.52148 577.08555,76.041894 548.07008,63.896552 494.51562,63.951172 Z M 257.00391,151.54492 c 1.14414,-0.0301 2.28713,0.0229 3.41797,0.2168 1.94013,0.3537 3.76751,1.13268 5.58007,1.88476 5.59845,2.3877 11.38632,4.29186 17.11524,6.33399 2.03068,0.80261 4.1919,1.57077 5.71289,3.21484 2.53718,3.47897 4.38079,7.42486 7.09375,10.78125 2.71401,1.95907 5.53303,3.76374 8.32422,5.60938 1.65169,1.06905 2.57396,2.89288 3.31836,4.65039 1.21412,5.08222 2.36056,10.17951 3.46289,15.28711 0.47773,2.5562 1.06631,5.19391 0.53515,7.79101 -1.67995,4.2817 -3.64811,8.44685 -5.20507,12.77735 -0.18118,2.8783 -0.14016,5.76613 -0.12696,8.64843 0.18089,3.94751 -1.10683,7.961 -3.64844,11 -3.34482,2.319 -6.74998,4.54797 -10.14453,6.79297 -0.98306,1.7689 -1.96621,3.53774 -2.94922,5.30664 -1.26226,2.5883 -3.1427,4.91483 -5.57421,6.48633 -1.08032,0.6421 -2.18199,1.36945 -3.45704,1.52735 -3.9596,-0.054 -7.92082,-0.18403 -11.88086,-0.0781 -0.60354,0.0606 -1.22705,-0.0682 -1.81445,0.11523 -2.84738,1.2512 -5.63442,2.6432 -8.46484,3.9336 -3.94296,1.8481 -8.64657,2.10645 -12.71485,0.50195 -2.75972,-2.007 -5.51485,-4.01904 -8.29492,-5.99805 -0.65615,-0.55309 -1.4418,-0.98459 -2.31054,-1.05859 -2.98433,-0.6953 -6.03679,-1.01383 -9.04493,-1.58203 -2.59132,-0.4635 -5.19968,-1.5318 -6.95507,-3.5625 -1.70299,-3.4839 -3.40644,-6.96532 -5.10938,-10.44922 -2.37997,-2.0002 -4.88096,-3.85321 -7.25976,-5.85351 -1.65888,-1.6884 -3.2679,-3.57147 -3.94141,-5.88868 -0.0796,-3.8654 0.51799,-7.70099 0.6582,-11.55859 -0.42963,-2.8998 -1.36962,-5.68788 -2.30664,-8.45508 -1.22305,-3.2543 -1.69559,-6.86915 -0.88672,-10.28125 1.23765,-1.8789 2.47526,-3.75782 3.71289,-5.63672 0.84968,-1.4498 2.04524,-2.72346 2.54492,-4.35742 0.28756,-2.61193 0.58483,-5.22265 0.89454,-7.83203 0.41234,-1.95452 0.75404,-4.01211 1.92187,-5.68555 2.69254,-2.38817 5.80179,-4.22909 8.84961,-6.11718 2.14885,-2.58462 3.70584,-5.58644 5.71875,-8.26954 1.3218,-1.63983 2.92854,-3.20624 5.00391,-3.80468 2.67946,-0.42558 5.38849,-0.62261 8.09179,-0.82422 1.36896,-0.16599 2.76208,-0.0888 4.11719,-0.36914 2.36985,-0.96655 4.71315,-1.99583 7.0586,-3.01953 1.3934,-0.55194 2.70966,-1.30077 4.15039,-1.73047 0.46223,-0.059 0.92247,-0.11678 1.38476,-0.17578 1.13278,-0.129 2.27774,-0.24149 3.42188,-0.27149 z m 322.07031,40.8125 c 8.63542,0.1101 16.91847,2.89542 25.4375,3.94922 8.19375,1.0324 16.3892,-0.66948 24.59375,-0.51758 9.02965,0.3043 17.81384,3.53557 25.30078,8.50977 4.28248,2.6892 8.1154,6.26735 10.5332,10.75195 1.86225,3.2519 2.41047,7.01808 2.89453,10.67578 0.76008,6.076 1.72359,12.14064 3.33008,18.05664 1.1205,4.6297 3.13112,9.09742 3.3086,13.91602 0.0984,5.8354 -2.20559,11.54049 -5.78125,16.08789 -3.09376,4.0747 -7.40232,7.18746 -12.21289,8.91406 -4.76927,1.6784 -9.86165,1.96381 -14.81836,2.75781 -6.18665,0.8084 -12.17925,2.75877 -17.82422,5.38477 -4.68887,2.0668 -9.22366,4.73636 -14.34961,5.56836 -8.17846,0.9886 -16.3816,-1.08728 -24.56055,-0.11328 -7.8936,1.1127 -15.11141,4.72599 -22.76758,6.74609 -7.49506,1.546 -15.1835,0.88983 -22.77343,1.26953 -8.33771,0.5346 -16.31948,3.18863 -24.4043,5.08203 -3.23318,0.8071 -6.51158,1.47575 -9.84375,1.68555 -9.22622,0.7191 -18.39374,-1.69625 -27.61719,-0.81445 -9.52673,0.8992 -18.33546,5.08889 -27.75781,6.52539 -6.10882,0.8662 -12.24524,-0.30831 -18.24805,-1.38281 -6.68238,-1.4749 -13.58715,-2.00367 -20.4082,-1.38477 -5.55605,0.5806 -11.1386,1.84542 -16.74414,1.10742 -6.49343,-1.0331 -12.49582,-4.10319 -17.73438,-7.99219 -5.27618,-3.73399 -9.52743,-9.10045 -11.35937,-15.34765 -0.79502,-4.8623 -1.2656,-9.77506 -1.90625,-14.66016 -0.49883,-4.7369 -1.31767,-9.43181 -1.83594,-14.16601 -0.59698,-4.8491 -0.40413,-9.97464 1.70899,-14.46094 3.20159,-6.0997 7.92975,-11.31973 13.36132,-15.51953 4.24638,-3.47741 9.22703,-5.99092 14.46094,-7.60352 6.85461,-1.9401 13.68274,-4.00794 20.33789,-6.56054 7.7654,-2.8526 15.28823,-6.54386 23.45313,-8.16016 10.05528,-1.5989 20.32467,-1.44876 30.32226,-3.47266 11.38174,-2.7129 22.69125,-5.90334 34.31641,-7.43164 0.5993,-0.0849 1.19685,-0.16623 1.79687,-0.24023 9.0014,-1.1151 18.09951,-0.96597 27.1543,-0.91797 7.58514,0.2329 15.14178,-0.8481 22.54688,-2.4082 9.25299,-1.9145 18.58853,-3.95869 28.08984,-3.83399 z"
       id="path889" />
    <path
       style="opacity:1;fill:#d40000;fill-opacity:1;stroke:none;stroke-width:6.58731031;stroke-linecap:round;stroke-linejoin:round;stroke-miterlimit:4;stroke-dasharray:none;stroke-dashoffset:0;stroke-opacity:1"
       d="m 665.64096,489.3036 c -0.33029,-0.014 -0.66068,-0.018 -0.99018,-0.013 -13.82038,1.6871 -26.83259,6.8892 -39.97199,11.2009 -21.84687,7.2728 -44.13841,13.7894 -67.11902,16.1692 -12.0568,1.2202 -24.18837,1.3253 -36.25855,0.4747 -3.14376,-4.8263 -7.97905,-8.5815 -13.46443,-10.3514 -6.011,-2.1647 -12.34594,-3.1748 -18.51392,-4.7739 -5.9185,-1.3015 -11.84251,-2.6885 -17.86803,-3.3634 -0.39767,-0.018 -0.79582,0 -1.19363,0 h -4e-5 c -5.07749,0.4226 -10.1323,2.2152 -14.25911,5.233 -12.81081,-3.5815 -25.64755,-7.0739 -38.64112,-9.9339 -6.85442,-0.8806 -14.29524,0.4338 -19.72828,4.9192 -5.01305,4.1926 -7.64499,10.3464 -10.36292,16.1191 -3.00456,6.178 -6.24525,12.5648 -6.50191,19.5712 -0.2164,9.6388 6.14814,18.8954 15.01832,22.5219 8.73512,4.371 17.66778,8.3549 26.77049,11.8965 3.9736,1.468 7.99207,2.7926 12.04471,3.9936 -8.45926,39.4364 -16.76848,78.9045 -24.35943,118.5182 -1.9703,10.4383 -3.46016,20.9603 -4.71641,31.5064 -0.80568,6.3752 -1.51251,12.7699 -2.50305,19.1171 -1.14663,3.8804 -7.44656,13.2483 -9.20274,16.8646 -0.63301,1.002 -1.13773,2.4067 -0.22698,3.414 1.17613,1.6269 3.9069,1.867 5.16472,0.2076 1.3383,-1.1108 6.75319,-8.2193 8.26003,-9.1037 1.18217,-0.035 1.64354,1.4375 1.14874,2.4762 -0.88055,1.8484 -4.72477,8.7254 -4.23107,10.7229 0.50251,2.0333 4.52674,0.765 5.90678,-0.7885 1.34612,-1.5153 4.73019,-7.3191 6.64778,-7.9756 1.37859,-0.472 -2.18011,6.1135 -2.57561,9.3086 -0.23905,1.9313 -1.4276,4.68 0.13756,5.8363 1.48021,1.0935 4.35042,0.4473 5.3143,-1.4966 0.95629,-1.9286 6.01805,-9.9236 7.65285,-11.3241 0.97128,-0.8321 2.1901,1.1414 1.87161,2.3821 -0.5321,2.0729 -3.56095,10.3786 -2.72038,12.3473 1.00481,2.3534 5.05225,0.8605 6.14299,-1.4224 0.98399,-2.0594 4.03015,-10.2902 5.79405,-11.7387 1.17182,-0.9623 3.21832,0.069 3.06687,1.5715 -0.22725,2.2607 -1.92062,11.8081 -0.6807,13.7171 1.36541,2.1023 5.50688,0.2596 6.16231,-2.1467 0.59452,-2.1826 1.31267,-11.2781 2.85782,-12.9304 1.14014,-1.2192 2.65547,1.3147 2.48495,2.9364 -0.26203,2.4917 1.63012,9.8655 3.21196,11.8268 1.89558,2.3503 6.05245,-0.5797 5.9666,-3.5984 -0.0745,-2.6172 -2.61311,-9.2489 -2.07143,-11.8104 0.21481,-1.0158 2.0107,0 2.18355,1.0349 0.55516,3.3132 4.93265,10.9337 7.20634,13.4181 2.02014,2.2074 6.13269,-1.6667 5.14569,-4.497 -0.78016,-4.1025 -5.42778,-12.3154 -5.62296,-16.4944 7.12793,-19.8948 11.63211,-40.592 15.73535,-61.2846 7.86846,-36.6063 16.00079,-73.172 25.57727,-109.375 29.90942,1.3937 59.94242,-0.1489 89.63187,-3.9589 14.59432,-1.9745 29.04319,-5.0661 43.11094,-9.4364 11.16129,-2.9897 22.29021,-6.4339 32.5801,-11.7703 6.17311,-3.4381 10.91373,-9.4927 12.39566,-16.4431 1.70677,-6.7208 0.61144,-13.7024 -0.48541,-20.4251 -1.42211,-9.0776 -3.99366,-18.0214 -8.10915,-26.2566 -2.88491,-4.1207 -7.8593,-6.3854 -12.81376,-6.5945 z"
       id="path2731" />
  </g>
</svg>
